<?xml version="1.0" standalone="no"?>
<!DOCTYPE svg PUBLIC "-//W3C//DTD SVG 20010904//EN"
 "http://www.w3.org/TR/2001/REC-SVG-20010904/DTD/svg10.dtd">
<svg version="1.0" xmlns="http://www.w3.org/2000/svg"
 width="343.000000pt" height="343.000000pt" viewBox="0 0 343.000000 343.000000"
 preserveAspectRatio="xMidYMid meet">
<metadata>
Created by potrace 1.11, written by Peter Selinger 2001-2013
</metadata>
<g transform="translate(0.000000,343.000000) scale(0.100000,-0.100000)"
fill="#000000" stroke="none">
<path d="M2247 3104 c-1 -1 -42 -4 -92 -7 -128 -7 -395 -53 -519 -88 -21 -6
-46 -12 -55 -14 -18 -3 -82 -23 -196 -60 -44 -14 -88 -27 -97 -30 -44 -10
-310 -120 -404 -167 -146 -73 -149 -74 -234 -131 -193 -128 -320 -270 -383
-429 -36 -89 -42 -125 -41 -248 2 -320 229 -676 694 -1092 235 -209 477 -371
686 -460 214 -91 429 -106 591 -42 170 68 285 182 443 439 64 105 230 422 230
440 0 3 9 24 19 48 115 250 201 535 256 847 12 63 14 364 4 420 -68 370 -334
561 -798 574 -56 1 -102 2 -104 0z"/>
</g>
</svg>
