<svg width="60" height="60" viewBox="0 0 60 60" fill="none" xmlns="http://www.w3.org/2000/svg">
<path d="M36 0.600037H24C12.3 3.00004 2.99998 12.2 0.599976 24V36C2.99998 47.8 12.3 57 24 59.4H36C47.8 57 57 47.7 59.4 36V24C57 12.2 47.7 3.00004 36 0.600037Z" fill="white"/>
<path d="M59.179 37C59.7268 34.707 60.0023 32.3575 60 30C60 27.59 59.716 25.246 59.179 23H37V0.821015C34.707 0.273258 32.3575 -0.00230959 30 1.45792e-05C27.59 1.45792e-05 25.246 0.284015 23 0.821015V23H0.821015C0.273258 25.293 -0.00230959 27.6425 1.45792e-05 30C1.45792e-05 32.41 0.284015 34.754 0.821015 37H23V59.179C25.293 59.7268 27.6425 60.0023 30 60C32.41 60 34.754 59.716 37 59.179V37H59.179Z" fill="#CE1124"/>
</svg>
