<svg width="27" height="28" viewBox="0 0 27 28" fill="none" xmlns="http://www.w3.org/2000/svg">
<path d="M13.5 0.842773C20.952 0.842773 27 6.89077 27 14.3428C27 21.7948 20.952 27.8428 13.5 27.8428C6.048 27.8428 0 21.7948 0 14.3428C0 6.89077 6.048 0.842773 13.5 0.842773ZM5.43105 18.9544C7.41285 21.9109 10.3882 23.7928 13.716 23.7928C17.0437 23.7928 20.0191 21.9122 21.9996 18.9544C19.7527 16.8548 16.7912 15.6887 13.716 15.6928C10.6404 15.6884 7.67829 16.8545 5.43105 18.9544ZM13.5 12.9928C14.5741 12.9928 15.6043 12.5661 16.3638 11.8066C17.1233 11.047 17.55 10.0169 17.55 8.94277C17.55 7.86865 17.1233 6.83851 16.3638 6.07899C15.6043 5.31947 14.5741 4.89277 13.5 4.89277C12.4259 4.89277 11.3957 5.31947 10.6362 6.07899C9.87669 6.83851 9.45 7.86865 9.45 8.94277C9.45 10.0169 9.87669 11.047 10.6362 11.8066C11.3957 12.5661 12.4259 12.9928 13.5 12.9928Z" fill="white"/>
</svg>
