<svg width="8" height="6" viewBox="0 0 8 6" fill="none" xmlns="http://www.w3.org/2000/svg">
<path d="M7.59976 0.5L0.399555 0.500001C0.326656 0.500191 0.2552 0.516976 0.192878 0.548547C0.130557 0.580117 0.0797291 0.625279 0.0458665 0.679171C0.012004 0.733063 -0.00361102 0.793645 0.000702452 0.854394C0.00501545 0.915143 0.0290938 0.97376 0.0703455 1.02394L3.67045 5.36501C3.81965 5.545 4.17886 5.545 4.32847 5.36501L7.92857 1.02393C7.97024 0.973864 7.99468 0.915217 7.99922 0.854367C8.00377 0.793517 7.98826 0.732789 7.95436 0.678783C7.92047 0.624777 7.8695 0.579557 7.80698 0.548038C7.74446 0.516518 7.67279 0.499904 7.59976 0.5Z" fill="white"/>
</svg>
