<svg width="13" height="14" viewBox="0 0 13 14" fill="none" xmlns="http://www.w3.org/2000/svg">
<path d="M11.0811 7.09094V7.05908C11.0824 6.18101 10.8239 5.32218 10.3381 4.59073L10.3483 4.60747L3.99952 10.9471C4.73586 11.4382 5.60167 11.6991 6.48676 11.6966H6.5008H6.51592C7.1335 11.6974 7.7444 11.5688 8.30927 11.3192L8.28119 11.3305C9.94115 10.6204 11.0827 9.00093 11.0827 7.1147V7.0904V7.09148L11.0811 7.09094ZM2.67003 9.60843L9.02747 3.25963C8.29507 2.75783 7.42749 2.49042 6.53968 2.49283H6.49972H6.50188H6.46732C5.66324 2.49159 4.87378 2.70785 4.18258 3.11869L4.2031 3.10735C2.82933 3.92275 1.92267 5.39912 1.92267 7.08662C1.92267 8.02406 2.20239 8.89671 2.68299 9.62463L2.67219 9.60735L2.67003 9.60843ZM12.9657 7.09094V7.10984C12.9657 8.01596 12.7767 8.87727 12.436 9.65757L12.4522 9.61653C11.4575 11.9709 9.16787 13.5926 6.49918 13.5926C3.8305 13.5926 1.54089 11.9704 0.562405 9.65865L0.546745 9.61653C0.222204 8.87187 0.0332031 8.00462 0.0332031 7.09256C0.0332031 6.1805 0.222204 5.31325 0.562945 4.52701L0.546745 4.56859C1.54143 2.21418 3.83103 0.59256 6.49972 0.59256C9.16841 0.59256 11.458 2.21472 12.4365 4.52647L12.4522 4.56859C12.794 5.35786 12.969 6.20924 12.9662 7.06934L12.9657 7.09094Z" fill="#FF0000"/>
</svg>
