<svg width="48" height="57" viewBox="0 0 48 57" fill="none" xmlns="http://www.w3.org/2000/svg">
<path fill-rule="evenodd" clip-rule="evenodd" d="M37.4503 0.832947H41.2252V7.4143L47.8066 7.4143V11.1892H41.2252V17.7704H37.4503V11.1892H30.8691V7.4143L37.4503 7.4143V0.832947ZM27.6746 30.3808C25.5773 32.4898 22.7327 33.6747 19.7666 33.6747C16.8005 33.6747 13.9559 32.4898 11.8586 30.3808C9.76128 28.2717 8.58301 25.4112 8.58301 22.4285C8.58301 19.4458 9.76128 16.5853 11.8586 14.4762C13.9559 12.3672 16.8005 11.1823 19.7666 11.1823C22.7327 11.1823 25.5773 12.3672 27.6746 14.4762C29.7719 16.5853 30.9502 19.4458 30.9502 22.4285C30.9502 25.4112 29.7719 28.2717 27.6746 30.3808ZM0.195312 53.5576C0.195312 44.9033 7.16758 37.892 15.7737 37.892H23.7595C32.3656 37.892 39.3379 44.9033 39.3379 53.5576C39.3379 54.9985 38.1758 56.1671 36.7429 56.1671H2.79026C1.35736 56.1671 0.195312 54.9985 0.195312 53.5576Z" fill="#ffffff"/>
</svg>
