<svg width="40" height="47" viewBox="0 0 40 47" fill="none" xmlns="http://www.w3.org/2000/svg">
<path fill-rule="evenodd" clip-rule="evenodd" d="M22.0364 1.94982C21.3697 1.82571 20.6886 1.76202 20.001 1.76202C17.0349 1.76202 14.1903 2.94689 12.093 5.05596C9.99565 7.16503 8.81738 10.0255 8.81738 13.0082C8.81738 15.9909 9.99565 18.8514 12.093 20.9605C14.1903 23.0695 17.0349 24.2544 20.001 24.2544C22.9671 24.2544 25.8116 23.0695 27.909 20.9605C28.7575 20.1072 29.4555 19.131 29.986 18.0734C24.4648 18.0348 20.001 13.5471 20.001 8.01685C20.001 5.73803 20.7589 3.63624 22.0364 1.94982ZM0.429688 44.1373C0.429688 35.483 7.40196 28.4717 16.0081 28.4717H23.9939C32.6 28.4717 39.5723 35.483 39.5723 44.1373C39.5723 45.5782 38.4102 46.7468 36.9773 46.7468H3.02463C1.59173 46.7468 0.429688 45.5782 0.429688 44.1373Z" fill="white"/>
<circle cx="30.5948" cy="7.5863" r="7.33307" fill="#00FF1A"/>
</svg>
