<svg width="90" height="57" viewBox="0 0 90 57" fill="none" xmlns="http://www.w3.org/2000/svg">
<path fill-rule="evenodd" clip-rule="evenodd" d="M59.6603 0.832947H63.4352V7.4143L70.0166 7.4143V11.1892H63.4352V17.7704H59.6603V11.1892H53.0791V7.4143L59.6603 7.4143V0.832947ZM49.8846 30.3808C47.7872 32.4898 44.9426 33.6747 41.9766 33.6747C39.0105 33.6747 36.1659 32.4898 34.0686 30.3808C31.9712 28.2717 30.793 25.4112 30.793 22.4285C30.793 19.4458 31.9712 16.5853 34.0686 14.4762C36.1659 12.3672 39.0105 11.1823 41.9766 11.1823C44.9426 11.1823 47.7872 12.3672 49.8846 14.4762C51.9819 16.5853 53.1602 19.4458 53.1602 22.4285C53.1602 25.4112 51.9819 28.2717 49.8846 30.3808ZM22.4053 53.5576C22.4053 44.9033 29.3775 37.892 37.9837 37.892H45.9695C54.5756 37.892 61.5479 44.9033 61.5479 53.5576C61.5479 54.9985 60.3858 56.1671 58.9529 56.1671H25.0002C23.5673 56.1671 22.4053 54.9985 22.4053 53.5576ZM18.0166 54.3829C18.0166 49.0965 19.9192 44.3846 22.8903 41.3223C21.9047 41.0815 20.8749 40.9538 19.8155 40.9538H13.1676C6.00336 40.9538 0.199219 46.7904 0.199219 53.9948C0.199219 55.1943 1.16658 56.1671 2.35941 56.1671H18.5185C18.2052 55.6839 18.0166 55.0617 18.0166 54.3829ZM16.4915 37.4431C18.9607 37.4431 21.3287 36.4567 23.0746 34.701C24.8206 32.9453 25.8014 30.564 25.8014 28.0811C25.8014 25.5981 24.8206 23.2168 23.0746 21.4611C21.3287 19.7054 18.9607 18.7191 16.4915 18.7191C14.0224 18.7191 11.6544 19.7054 9.90844 21.4611C8.1625 23.2168 7.18164 25.5981 7.18164 28.0811C7.18164 30.564 8.1625 32.9453 9.90844 34.701C11.6544 36.4567 14.0224 37.4431 16.4915 37.4431ZM87.6417 56.1671H64.9751C65.1 55.795 65.1687 55.3882 65.1687 54.962C65.1687 50.7697 64.062 46.8912 62.1826 43.7312C64.3865 41.9912 67.1652 40.9538 70.1856 40.9538H76.8335C83.9977 40.9538 89.8019 46.7904 89.8019 53.9948C89.8019 55.1943 88.8345 56.1671 87.6417 56.1671ZM73.5095 37.4431C75.9787 37.4431 78.3467 36.4567 80.0926 34.701C81.8386 32.9453 82.8194 30.564 82.8194 28.0811C82.8194 25.5981 81.8386 23.2168 80.0926 21.4611C78.3467 19.7054 75.9787 18.7191 73.5095 18.7191C71.0404 18.7191 68.6724 19.7054 66.9265 21.4611C65.1805 23.2168 64.1996 25.5981 64.1996 28.0811C64.1996 30.564 65.1805 32.9453 66.9265 34.701C68.6724 36.4567 71.0404 37.4431 73.5095 37.4431Z" fill="#ffffff"/>
</svg>
