<svg width="70" height="57" viewBox="0 0 70 57" fill="none" xmlns="http://www.w3.org/2000/svg">
<path fill-rule="evenodd" clip-rule="evenodd" d="M63.3277 0.832947H59.5528V7.4143L52.9717 7.4143V11.1892H59.5528V17.7704H63.3277V11.1892H69.9092V7.4143L63.3277 7.4143V0.832947ZM41.8691 33.6747C44.8352 33.6747 47.6798 32.4898 49.7771 30.3808C51.8745 28.2717 53.0527 25.4112 53.0527 22.4285C53.0527 19.4458 51.8745 16.5853 49.7771 14.4762C47.6798 12.3672 44.8352 11.1823 41.8691 11.1823C38.9031 11.1823 36.0585 12.3672 33.9611 14.4762C31.8638 16.5853 30.6855 19.4458 30.6855 22.4285C30.6855 25.4112 31.8638 28.2717 33.9611 30.3808C36.0585 32.4898 38.9031 33.6747 41.8691 33.6747ZM37.8762 37.892C29.2701 37.892 22.2979 44.9033 22.2979 53.5576C22.2979 54.9985 23.4599 56.1671 24.8928 56.1671H58.8455C60.2784 56.1671 61.4404 54.9985 61.4404 53.5576C61.4404 44.9033 54.4682 37.892 45.862 37.892H37.8762ZM22.7829 41.3223C19.8117 44.3846 17.9092 49.0965 17.9092 54.3829C17.9092 55.0617 18.0978 55.6839 18.4111 56.1671H2.25198C1.05915 56.1671 0.0917969 55.1943 0.0917969 53.9948C0.0917969 46.7904 5.89593 40.9538 13.0602 40.9538H19.708C20.7675 40.9538 21.7972 41.0815 22.7829 41.3223ZM22.9672 34.701C21.2213 36.4567 18.8532 37.4431 16.3841 37.4431C13.915 37.4431 11.547 36.4567 9.80102 34.701C8.05508 32.9453 7.07422 30.564 7.07422 28.0811C7.07422 25.5981 8.05508 23.2168 9.80102 21.4611C11.547 19.7054 13.915 18.7191 16.3841 18.7191C18.8532 18.7191 21.2213 19.7054 22.9672 21.4611C24.7131 23.2168 25.694 25.5981 25.694 28.0811C25.694 30.564 24.7131 32.9453 22.9672 34.701Z" fill="#ffffff"/>
</svg>
