<svg width="40" height="45" viewBox="0 0 40 45" fill="none" xmlns="http://www.w3.org/2000/svg">
<path d="M27.5544 18.8535C25.5507 20.8685 22.8335 22 20.001 22C17.1684 22 14.4513 20.8685 12.4475 18.8535C10.4436 16.8384 9.31738 14.1048 9.31738 11.2538C9.31738 8.40285 10.4436 5.66922 12.4475 3.65413C14.4513 1.63913 17.1684 0.507629 20.001 0.507629C22.8335 0.507629 25.5507 1.63913 27.5544 3.65413C29.5583 5.66922 30.6846 8.40285 30.6846 11.2538C30.6846 14.1048 29.5583 16.8384 27.5544 18.8535ZM0.929688 42.3829C0.929688 34.0021 7.68073 27.2173 16.0081 27.2173H23.9939C32.3212 27.2173 39.0723 34.0021 39.0723 42.3829C39.0723 43.5503 38.1315 44.4924 36.9773 44.4924H3.02463C1.8705 44.4924 0.929688 43.5503 0.929688 42.3829Z" fill="white" stroke="white"/>
</svg>
