<svg width="13" height="14" viewBox="0 0 13 14" fill="none" xmlns="http://www.w3.org/2000/svg">
<path d="M0 13.5926V10.5231L9.53333 1.00784C9.67778 0.87543 9.83739 0.773115 10.0122 0.700893C10.1869 0.628671 10.3704 0.59256 10.5625 0.59256C10.7546 0.59256 10.9412 0.628671 11.1222 0.700893C11.3033 0.773115 11.4597 0.881449 11.5917 1.02589L12.5847 2.037C12.7292 2.16941 12.8346 2.32589 12.9011 2.50645C12.9675 2.687 13.0005 2.86756 13 3.04812C13 3.24071 12.967 3.42439 12.9011 3.59917C12.8351 3.77395 12.7296 3.93332 12.5847 4.07728L3.06944 13.5926H0ZM10.5444 4.05923L11.5556 3.04812L10.5444 2.037L9.53333 3.04812L10.5444 4.05923Z" fill="#3454C8"/>
</svg>
