<svg width="24" height="24" viewBox="0 0 24 24" fill="none" xmlns="http://www.w3.org/2000/svg">
<path d="M12.3752 0.666687C7.35352 0.666687 3.09852 3.88669 1.52686 8.33335H23.2235C21.6519 3.88669 17.3969 0.666687 12.3752 0.666687Z" fill="#3E4347"/>
<path d="M12.3752 23.6667C17.3969 23.6667 21.6519 20.485 23.2235 16H1.52686C3.09852 20.485 7.35352 23.6667 12.3752 23.6667Z" fill="#FFE62E"/>
<path d="M1.52667 8.33337C1.105 9.52171 0.875 10.825 0.875 12.1667C0.875 13.5084 1.105 14.8117 1.52667 16H23.2233C23.645 14.8117 23.875 13.5084 23.875 12.1667C23.875 10.825 23.645 9.52171 23.2233 8.33337H1.52667Z" fill="#ED4C5C"/>
</svg>
