<svg width="37" height="42" viewBox="0 0 37 42" fill="none" xmlns="http://www.w3.org/2000/svg">
<path d="M18.2083 42L12.2083 36H4.20825C3.10825 36 2.16692 35.6087 1.38425 34.826C0.601585 34.0433 0.209585 33.1013 0.208252 32V4C0.208252 2.9 0.600252 1.95867 1.38425 1.176C2.16825 0.393333 3.10959 0.00133333 4.20825 0H32.2082C33.3082 0 34.2502 0.392 35.0342 1.176C35.8182 1.96 36.2096 2.90133 36.2082 4V32C36.2082 33.1 35.8169 34.042 35.0342 34.826C34.2516 35.61 33.3096 36.0013 32.2082 36H24.2082L18.2083 42ZM18.0082 30C18.7082 30 19.3002 29.758 19.7843 29.274C20.2682 28.79 20.5096 28.1987 20.5082 27.5C20.5069 26.8013 20.2649 26.2093 19.7822 25.724C19.2996 25.2387 18.7082 24.9973 18.0082 25C17.3082 25.0027 16.7162 25.2447 16.2323 25.726C15.7483 26.2073 15.5069 26.7987 15.5082 27.5C15.5096 28.2013 15.7516 28.7933 16.2342 29.276C16.7169 29.7587 17.3082 30 18.0082 30ZM16.2083 22.3H19.9083C19.9083 21.7333 19.9336 21.25 19.9842 20.85C20.0349 20.45 20.1429 20.0667 20.3083 19.7C20.4736 19.3333 20.6816 18.992 20.9323 18.676C21.1829 18.36 21.5416 17.968 22.0082 17.5C23.1749 16.3333 24.0002 15.358 24.4842 14.574C24.9682 13.79 25.2096 12.8987 25.2082 11.9C25.2082 10.1333 24.6082 8.70867 23.4083 7.626C22.2083 6.54333 20.5916 6.00133 18.5583 6C16.7249 6 15.1669 6.45 13.8843 7.35C12.6016 8.25 11.7096 9.5 11.2083 11.1L14.5082 12.4C14.7416 11.5 15.2083 10.7753 15.9083 10.226C16.6083 9.67667 17.4249 9.40133 18.3582 9.4C19.2582 9.4 20.0082 9.642 20.6082 10.126C21.2083 10.61 21.5082 11.2513 21.5082 12.05C21.5082 12.6167 21.3249 13.2167 20.9583 13.85C20.5916 14.4833 19.9749 15.1833 19.1082 15.95C18.5416 16.4167 18.0829 16.8753 17.7323 17.326C17.3816 17.7767 17.0903 18.2513 16.8582 18.75C16.6262 19.2487 16.4596 19.774 16.3582 20.326C16.2569 20.878 16.2069 21.536 16.2083 22.3Z" fill="white"/>
</svg>
