<svg width="1280" height="341" viewBox="0 0 1280 341" fill="none" xmlns="http://www.w3.org/2000/svg">
<g clip-path="url(#clip0_680_165)">
<path d="M409.3 68.5758C406.666 68.5758 404.428 70.4882 404.016 73.0923L373.523 266.472C373.412 267.178 373.456 267.9 373.651 268.588C373.845 269.276 374.187 269.914 374.652 270.457C375.116 271 375.693 271.437 376.343 271.736C376.992 272.035 377.699 272.19 378.414 272.19H414.576C417.207 272.19 419.448 270.274 419.86 267.674L428.817 210.886C429.226 208.286 431.467 206.37 434.101 206.37H466.979C505.394 206.37 538.004 178.341 543.961 140.36C549.966 102.059 520.044 68.659 477.634 68.5758H409.3ZM444.453 111.746H470.759C492.415 111.746 499.468 124.524 497.238 138.656C495.008 152.818 484.055 163.249 463.105 163.249H436.331L444.453 111.746ZM617.51 124.891C608.379 124.925 597.872 126.796 586.076 131.709C559.018 142.987 546.024 166.295 540.506 183.288C540.506 183.288 522.943 235.132 562.624 263.614C562.624 263.614 599.425 291.035 640.853 261.925L640.138 266.472C640.027 267.177 640.071 267.899 640.265 268.586C640.46 269.274 640.8 269.911 641.264 270.454C641.728 270.997 642.304 271.434 642.953 271.733C643.601 272.033 644.307 272.189 645.021 272.19H679.351C681.985 272.19 684.222 270.274 684.634 267.674L705.516 135.247C705.628 134.54 705.586 133.818 705.392 133.13C705.198 132.441 704.857 131.803 704.393 131.259C703.929 130.715 703.353 130.278 702.704 129.978C702.055 129.678 701.348 129.522 700.633 129.521H666.304C663.67 129.521 661.428 131.437 661.02 134.037L659.898 141.165C659.898 141.165 644.908 124.789 617.51 124.891ZM618.633 166.719C622.575 166.719 626.18 167.263 629.416 168.302C644.228 173.057 652.626 187.287 650.195 202.711C647.198 221.703 631.623 235.687 611.648 235.687C607.71 235.687 604.104 235.147 600.865 234.108C586.057 229.353 577.606 215.123 580.036 199.699C583.033 180.707 598.658 166.719 618.633 166.719Z" fill="white"/>
<path d="M903.661 68.5758C901.027 68.5758 898.79 70.4882 898.378 73.0923L867.885 266.472C867.774 267.178 867.817 267.9 868.012 268.588C868.207 269.276 868.549 269.914 869.013 270.457C869.478 271 870.055 271.437 870.704 271.736C871.354 272.035 872.06 272.19 872.775 272.19H908.938C911.568 272.19 913.81 270.274 914.222 267.674L923.179 210.886C923.587 208.286 925.828 206.37 928.463 206.37H961.341C999.756 206.37 1032.36 178.341 1038.31 140.36C1044.32 102.059 1014.41 68.659 971.995 68.5758H903.661ZM938.815 111.746H965.12C986.777 111.746 993.83 124.524 991.6 138.656C989.37 152.818 978.421 163.249 957.467 163.249H930.693L938.815 111.746ZM1111.87 124.891C1102.74 124.925 1092.23 126.796 1080.43 131.709C1053.38 142.987 1040.38 166.295 1034.86 183.288C1034.86 183.288 1017.31 235.132 1056.99 263.614C1056.99 263.614 1093.78 291.035 1135.21 261.925L1134.5 266.472C1134.39 267.178 1134.43 267.9 1134.63 268.588C1134.82 269.276 1135.16 269.914 1135.63 270.457C1136.09 271 1136.67 271.437 1137.32 271.736C1137.97 272.035 1138.68 272.19 1139.39 272.19H1173.72C1176.35 272.19 1178.59 270.274 1179 267.674L1199.89 135.247C1200 134.54 1199.96 133.817 1199.76 133.128C1199.57 132.439 1199.23 131.8 1198.76 131.256C1198.3 130.712 1197.72 130.275 1197.07 129.975C1196.42 129.676 1195.71 129.521 1195 129.521H1160.67C1158.03 129.521 1155.79 131.437 1155.39 134.037L1154.26 141.165C1154.26 141.165 1139.27 124.789 1111.87 124.891ZM1112.99 166.719C1116.93 166.719 1120.54 167.263 1123.77 168.302C1138.59 173.057 1146.98 187.287 1144.55 202.711C1141.56 221.703 1125.98 235.687 1106.01 235.687C1102.07 235.687 1098.46 235.147 1095.22 234.108C1080.41 229.353 1071.96 215.123 1074.39 199.699C1077.39 180.707 1093.02 166.719 1112.99 166.719Z" fill="white"/>
<path d="M721.806 129.521C719.085 129.521 717.15 132.178 717.981 134.767L755.618 251.558L721.587 306.595C719.935 309.267 721.855 312.718 724.996 312.718H765.218C766.368 312.717 767.499 312.419 768.5 311.854C769.502 311.289 770.341 310.474 770.936 309.49L876.048 135.606C877.662 132.934 875.735 129.517 872.613 129.517H832.395C831.234 129.518 830.092 129.821 829.084 130.397C828.075 130.973 827.234 131.802 826.642 132.801L785.268 202.654L764.265 133.319C763.581 131.063 761.499 129.517 759.144 129.517L721.806 129.521Z" fill="white"/>
<path d="M1238.89 68.5758C1236.26 68.5758 1234.02 70.492 1233.61 73.0923L1203.11 266.464C1203 267.171 1203.04 267.894 1203.23 268.583C1203.43 269.272 1203.77 269.91 1204.23 270.455C1204.7 270.999 1205.28 271.436 1205.93 271.735C1206.58 272.035 1207.28 272.19 1208 272.19H1244.16C1246.79 272.19 1249.03 270.274 1249.45 267.674L1279.94 74.2942C1280.05 73.5885 1280.01 72.8671 1279.81 72.1797C1279.62 71.4922 1279.28 70.855 1278.81 70.3118C1278.35 69.7685 1277.77 69.3321 1277.12 69.0324C1276.48 68.7327 1275.77 68.577 1275.06 68.5758H1238.89Z" fill="white"/>
<path d="M107.822 68.5758C105.493 68.5777 103.24 69.4103 101.47 70.924C99.6991 72.4377 98.5261 74.5332 98.1618 76.8341L82.1104 178.639C82.8587 173.885 86.9556 170.381 91.7707 170.381H138.807C186.145 170.381 226.314 135.848 233.654 89.0495C234.2 85.5556 234.51 82.0289 234.58 78.4933C222.55 72.1853 208.418 68.5758 192.933 68.5758H107.822Z" fill="white" fill-opacity="0.6"/>
<path d="M234.58 78.4971C234.51 82.0327 234.2 85.5594 233.654 89.0533C226.314 135.851 186.142 170.385 138.807 170.385H91.7706C86.9593 170.385 82.8586 173.885 82.1103 178.643L67.3511 272.194L58.1065 330.882C57.926 332.016 57.9936 333.176 58.3048 334.281C58.616 335.386 59.1635 336.411 59.909 337.284C60.6546 338.157 61.5807 338.858 62.6235 339.338C63.6663 339.819 64.8009 340.067 65.949 340.067H117.003C119.332 340.065 121.585 339.232 123.355 337.718C125.126 336.205 126.299 334.109 126.663 331.808L140.111 246.516C140.475 244.214 141.649 242.117 143.421 240.603C145.194 239.089 147.448 238.258 149.779 238.258H179.837C227.176 238.258 267.345 203.724 274.684 156.926C279.896 123.712 263.168 93.4867 234.58 78.4971Z" fill="#828282"/>
<path d="M49.8218 0.714478C45.0105 0.714478 40.9098 4.21432 40.1614 8.96518L0.0983569 263.01C-0.661327 267.832 3.06538 272.194 7.94853 272.194H67.3588L82.1104 178.643L98.1618 76.8379C98.5261 74.537 99.6991 72.4415 101.47 70.9278C103.241 69.4141 105.493 68.5815 107.822 68.5796H192.933C208.422 68.5796 222.55 72.1928 234.58 78.4971C235.404 35.8905 200.247 0.714478 151.91 0.714478H49.8218Z" fill="white" fill-opacity="0.8"/>
</g>
<defs>
<clipPath id="clip0_680_165">
<rect width="1280" height="339.345" fill="white" transform="translate(0 0.714233)"/>
</clipPath>
</defs>
</svg>
