<svg width="9" height="14" viewBox="0 0 9 14" fill="none" xmlns="http://www.w3.org/2000/svg">
<path d="M0.888672 9.25923H2.33312C2.33312 10.0392 3.32256 10.7037 4.49978 10.7037C5.67701 10.7037 6.66645 10.0392 6.66645 9.25923C6.66645 8.46478 5.91534 8.17589 4.32645 7.79312C2.79534 7.41034 0.888672 6.93367 0.888672 4.92589C0.888672 3.63312 1.95034 2.53534 3.41645 2.167V0.59256H5.58312V2.167C7.04923 2.53534 8.11089 3.63312 8.11089 4.92589H6.66645C6.66645 4.14589 5.67701 3.48145 4.49978 3.48145C3.32256 3.48145 2.33312 4.14589 2.33312 4.92589C2.33312 5.72034 3.08423 6.00923 4.67312 6.392C6.20423 6.77478 8.11089 7.25145 8.11089 9.25923C8.11089 10.552 7.04923 11.6498 5.58312 12.0181V13.5926H3.41645V12.0181C1.95034 11.6498 0.888672 10.552 0.888672 9.25923Z" fill="#3454C8"/>
</svg>
