<svg width="54" height="37" viewBox="0 0 54 37" fill="none" xmlns="http://www.w3.org/2000/svg">
<path d="M27.9416 0.454922C23.9514 0.448197 18.9524 1.70915 14.0207 4.2759C9.09677 6.84264 5.19397 10.2052 2.90296 13.4893C0.610822 16.7621 -0.0090071 19.8109 1.11857 21.9853C2.24726 24.1485 5.10094 25.3927 9.10125 25.3927C13.1016 25.4039 18.1005 24.1373 23.0211 21.5818C27.9528 19.0151 31.8534 15.6413 34.1399 12.3684C36.4376 9.09554 37.0429 6.04683 35.922 3.87239C34.79 1.70915 31.943 0.454922 27.9416 0.454922ZM38.2422 8.33337C37.8499 10.0483 36.998 11.808 35.7987 13.5229C33.2656 17.1432 29.1297 20.6739 23.9514 23.3639C18.7731 26.0652 13.5163 27.4214 9.10013 27.4214C7.01535 27.4214 5.08301 27.1076 3.45441 26.4463L4.64139 28.7328C5.77121 30.9073 8.61704 32.1514 12.6196 32.1514C16.621 32.1514 21.62 30.896 26.5405 28.3293C31.4723 25.7738 35.3728 22.4 37.6594 19.1159C39.9459 15.8431 40.5736 12.7943 39.4415 10.6311L38.2422 8.33337ZM41.4702 10.2164C42.7256 13.2091 41.7168 16.8518 39.3182 20.2704C37.1998 23.3079 33.9605 26.2557 29.9479 28.7216C31.1921 28.8561 32.4922 28.9234 33.8148 28.9234C39.363 28.9234 44.3844 27.7353 47.9263 25.8859C51.4794 24.0365 53.4297 21.6154 53.4297 19.172C53.4297 16.7285 51.4794 14.3075 47.9263 12.4581C46.1218 11.5166 43.9249 10.7432 41.4702 10.2164ZM53.4297 24.2046C52.2864 25.5384 50.7172 26.7153 48.8678 27.6792C44.9449 29.7192 39.6545 30.9409 33.8148 30.9409C31.4386 30.9409 29.1521 30.7391 27.0113 30.358C24.4109 31.6694 21.7993 32.6446 19.2886 33.2835C19.4231 33.3619 19.5576 33.4292 19.7034 33.5076C23.2452 35.357 28.2666 36.5451 33.8148 36.5451C39.363 36.5451 44.3844 35.357 47.9263 33.5076C51.4794 31.6582 53.4297 29.2372 53.4297 26.7937V24.2046Z" fill="white"/>
</svg>
