<svg width="50" height="51" viewBox="0 0 50 51" fill="none" xmlns="http://www.w3.org/2000/svg">
<path d="M50 8.3125C50 10.0703 48.6035 11.6914 46.25 13C43.4082 14.5723 39.1699 15.6855 34.3066 16.0176C33.9453 15.8418 33.584 15.6758 33.2031 15.5293C29.3555 13.918 24.2383 13 18.75 13C17.9395 13 17.1484 13.0195 16.3574 13.0586L16.25 13C13.8965 11.6914 12.5 10.0703 12.5 8.3125C12.5 3.99609 20.8984 0.5 31.25 0.5C41.6016 0.5 50 3.99609 50 8.3125ZM15.6934 16.2324C16.6895 16.1641 17.7148 16.125 18.75 16.125C24.8242 16.125 30.2148 17.3262 33.6426 19.1914C36.0645 20.5098 37.5 22.1504 37.5 23.9375C37.5 24.3281 37.4316 24.709 37.2949 25.0801C36.8457 26.3691 35.6348 27.5508 33.877 28.5469C33.8672 28.5566 33.8477 28.5566 33.8379 28.5664C33.8086 28.5859 33.7793 28.5957 33.75 28.6152C30.332 30.5098 24.8828 31.7402 18.75 31.7402C12.9297 31.7402 7.72461 30.6367 4.27734 28.8984C4.0918 28.8105 3.91602 28.7129 3.74023 28.6152C1.39648 27.3164 0 25.6953 0 23.9375C0 20.5391 5.21484 17.6387 12.5 16.5742C13.5254 16.4277 14.5898 16.3105 15.6934 16.2324ZM40.625 23.9375C40.625 21.7988 39.5898 20.041 38.2715 18.7227C41.0352 18.293 43.5645 17.6094 45.7129 16.7207C47.3047 16.0566 48.7891 15.2363 50 14.2305V17.6875C50 19.5723 48.3887 21.3105 45.7227 22.6582C44.2969 23.3809 42.5586 23.9961 40.6055 24.4648C40.6152 24.2891 40.625 24.123 40.625 23.9473V23.9375ZM37.5 33.3125C37.5 35.0703 36.1035 36.6914 33.75 38C33.5742 38.0977 33.3984 38.1855 33.2129 38.2832C29.7754 40.0215 24.5703 41.125 18.75 41.125C12.6172 41.125 7.16797 39.8945 3.75 38C1.39648 36.6914 0 35.0703 0 33.3125V29.8555C1.2207 30.8613 2.69531 31.6816 4.28711 32.3457C8.14453 33.957 13.2617 34.875 18.75 34.875C24.2383 34.875 29.3555 33.957 33.2129 32.3457C33.9746 32.0332 34.707 31.6719 35.4004 31.2813C35.9961 30.9492 36.5527 30.5781 37.0801 30.1875C37.2266 30.0801 37.3633 29.9629 37.5 29.8555V33.3125ZM40.625 33.3125V27.6582C42.4805 27.248 44.1895 26.7305 45.7129 26.0957C47.3047 25.4316 48.7891 24.6113 50 23.6055V27.0625C50 28.0879 49.5117 29.1133 48.5449 30.0801C46.9531 31.6719 44.1504 32.9805 40.6055 33.8301C40.6152 33.6641 40.625 33.4883 40.625 33.3125ZM18.75 44.25C24.2383 44.25 29.3555 43.332 33.2129 41.7207C34.8047 41.0566 36.2891 40.2363 37.5 39.2305V42.6875C37.5 47.0039 29.1016 50.5 18.75 50.5C8.39844 50.5 0 47.0039 0 42.6875V39.2305C1.2207 40.2363 2.69531 41.0566 4.28711 41.7207C8.14453 43.332 13.2617 44.25 18.75 44.25Z" fill="white"/>
</svg>
