<svg width="45" height="52" viewBox="0 0 45 52" fill="none" xmlns="http://www.w3.org/2000/svg">
<path d="M18.5714 27.0957L13.7614 22.2857L11.1428 24.9043L18.5714 32.3329L33.4285 17.4757L30.81 14.8571L18.5714 27.0957Z" fill="#4F33EF"/>
<path d="M22.2857 52L10.816 45.8844C7.54594 44.1452 4.81132 41.5481 2.90576 38.3721C1.00021 35.196 -0.00432762 31.561 1.40141e-05 27.8571V3.71429C1.40141e-05 2.7292 0.391339 1.78445 1.0879 1.08789C1.78447 0.391325 2.72921 0 3.7143 0H40.8572C41.8422 0 42.787 0.391325 43.4836 1.08789C44.1801 1.78445 44.5714 2.7292 44.5714 3.71429V27.8571C44.5758 31.561 43.5713 35.196 41.6657 38.3721C39.7601 41.5481 37.0255 44.1452 33.7554 45.8844L22.2857 52ZM3.7143 3.71429V27.8571C3.71223 30.8874 4.53493 33.8611 6.09419 36.4595C7.65345 39.0578 9.89048 41.1828 12.5654 42.6066L22.2857 47.7899L32.006 42.6084C34.6813 41.1845 36.9185 39.0592 38.4777 36.4605C40.037 33.8618 40.8596 30.8877 40.8572 27.8571V3.71429H3.7143Z" fill="#4F33EF"/>
</svg>
