<svg width="44" height="29" viewBox="0 0 44 29" fill="none" xmlns="http://www.w3.org/2000/svg">
<path d="M25.5402 0.151053C24.3868 0.0719021 23.1995 0.0266724 22.001 0.0266724C14.9679 0.0266724 8.72624 1.41747 4.75739 3.57715C1.95318 5.10364 0.291016 7.00326 0.291016 9.07249C0.291016 9.52478 0.370167 9.96576 0.528469 10.3954C1.0486 11.888 2.4507 13.2562 4.48601 14.4095C4.49732 14.4208 4.51994 14.4208 4.53124 14.4321C4.56516 14.4548 4.59908 14.4661 4.63301 14.4887C8.59055 16.6823 14.9 18.107 22.001 18.107C28.7401 18.107 34.7669 16.8293 38.7584 14.8166C38.9732 14.7148 39.1767 14.6017 39.3803 14.4887C42.094 12.9848 43.7109 11.1078 43.7109 9.07249C43.7109 5.13756 37.6729 1.7793 29.2376 0.546808C28.0504 0.377198 26.8179 0.241511 25.5402 0.151053ZM0.291016 19.9275C0.291016 21.9628 1.90796 23.8398 4.63301 25.355C4.83654 25.468 5.04007 25.5698 5.25491 25.6829C9.23507 27.6956 15.2618 28.9733 22.001 28.9733C29.1019 28.9733 35.4114 27.5486 39.3689 25.355C42.094 23.8398 43.7109 21.9628 43.7109 19.9275V15.9247C42.2975 17.0893 40.5901 18.0392 38.747 18.8081C34.2807 20.6738 28.3557 21.7366 22.001 21.7366C15.6463 21.7366 9.72128 20.6738 5.25491 18.8081C4.37294 18.4462 3.52489 18.0278 2.72208 17.5756C2.03233 17.1911 1.38782 16.7614 0.777225 16.3091C0.607616 16.1848 0.449318 16.0491 0.291016 15.9247V19.9275Z" fill="white"/>
</svg>
