<svg width="57" height="42" viewBox="0 0 57 42" fill="none" xmlns="http://www.w3.org/2000/svg">
<path d="M33.0928 22.569C31.3659 22.569 29.9136 21.9655 28.7358 20.7584C27.558 19.5513 26.9691 18.0628 26.9691 16.2929C26.9691 14.523 27.558 13.0345 28.7358 11.8274C29.9136 10.6203 31.3659 10.0167 33.0928 10.0167C34.8197 10.0167 36.2721 10.6203 37.4499 11.8274C38.6277 13.0345 39.2166 14.523 39.2166 16.2929C39.2166 18.0628 38.6277 19.5513 37.4499 20.7584C36.2721 21.9655 34.8197 22.569 33.0928 22.569ZM14.1336 32.5889C12.7721 32.5889 11.6076 32.092 10.64 31.0983C9.67044 30.1046 9.18565 28.9111 9.18565 27.5178V5.06799C9.18565 3.67469 9.67044 2.48222 10.64 1.49059C11.6096 0.498954 12.7732 0.00209205 14.1306 0H52.052C53.4135 0 54.578 0.495816 55.5456 1.48745C56.5132 2.47908 56.998 3.6726 57 5.06799V27.5178C57 28.9111 56.5152 30.1036 55.5456 31.0952C54.578 32.091 53.4145 32.5889 52.0551 32.5889H14.1336ZM17.1955 29.4508H48.9901C48.9901 28.045 49.4749 26.8483 50.4445 25.8609C51.4121 24.8734 52.5756 24.3797 53.9351 24.3797V8.20607C52.5674 8.20607 51.4019 7.71025 50.4384 6.71862C49.4729 5.7249 48.9901 4.53138 48.9901 3.13808H17.1955C17.1955 4.54184 16.7107 5.73745 15.7411 6.7249C14.7736 7.71234 13.6101 8.20607 12.2506 8.20607V24.3797C13.6182 24.3797 14.7848 24.8766 15.7503 25.8703C16.7138 26.8619 17.1955 28.0544 17.1955 29.4477M47.9307 42H4.948C3.58649 42 2.42195 41.5042 1.45439 40.5126C0.484798 39.5188 0 38.3253 0 36.932V9.29184H3.06188V36.932C3.06188 37.4132 3.25784 37.8557 3.64976 38.2594C4.04373 38.6632 4.47647 38.8651 4.948 38.8651H47.9307V42ZM14.1336 29.4477H12.2475V3.14121H14.1336C13.6233 3.14121 13.1814 3.33264 12.8079 3.71548C12.4343 4.09833 12.2475 4.55021 12.2475 5.07113V27.5178C12.2475 28.0408 12.4343 28.4937 12.8079 28.8766C13.1814 29.2594 13.6233 29.4508 14.1336 29.4508" fill="#4F33EF"/>
</svg>
