<svg width="57" height="58" viewBox="0 0 57 58" fill="none" xmlns="http://www.w3.org/2000/svg">
<path d="M12.0442 9.1075C12.0442 7.9968 12.4671 6.93159 13.2198 6.14621C13.9725 5.36083 14.9935 4.9196 16.058 4.9196C17.1225 4.9196 18.1434 5.36083 18.8961 6.14621C19.6489 6.93159 20.0717 7.9968 20.0717 9.1075C20.0717 10.2182 19.6489 11.2834 18.8961 12.0688C18.1434 12.8542 17.1225 13.2954 16.058 13.2954C14.9935 13.2954 13.9725 12.8542 13.2198 12.0688C12.4671 11.2834 12.0442 10.2182 12.0442 9.1075ZM16.058 0.731709C13.9289 0.731709 11.8871 1.61416 10.3817 3.18492C8.8762 4.75569 8.03045 6.8861 8.03045 9.1075C8.03045 11.3289 8.8762 13.4593 10.3817 15.0301C11.8871 16.6008 13.9289 17.4833 16.058 17.4833C18.187 17.4833 20.2288 16.6008 21.7343 15.0301C23.2397 13.4593 24.0855 11.3289 24.0855 9.1075C24.0855 6.8861 23.2397 4.75569 21.7343 3.18492C20.2288 1.61416 18.187 0.731709 16.058 0.731709ZM5.02013 21.6712C3.68949 21.6712 2.41334 22.2227 1.47243 23.2044C0.531526 24.1862 0.00292969 25.5177 0.00292969 26.9061V27.4295C0.00292969 28.0054 0.00292952 31.2929 2.11818 34.4652C3.63739 36.7434 6.09782 38.7515 9.94301 39.7838C10.7163 38.2361 11.9336 36.9792 13.4249 36.1885C8.74891 35.6629 6.5273 33.7449 5.41348 32.0739C4.51749 30.7042 4.03136 29.0878 4.01669 27.4295V26.9061C4.01669 26.6284 4.12241 26.3621 4.31059 26.1657C4.49877 25.9694 4.754 25.8591 5.02013 25.8591H17.0614C17.0614 24.3808 17.3283 22.9694 17.814 21.6712H5.02013ZM54.0803 34.4652C52.5611 36.7434 50.1007 38.7515 46.2555 39.7838C45.4822 38.2361 44.2649 36.9792 42.7736 36.1885C47.4496 35.6629 49.6712 33.7449 50.785 32.0739C51.681 30.7042 52.1671 29.0878 52.1818 27.4295V26.9061C52.1818 26.6284 52.0761 26.3621 51.8879 26.1657C51.6997 25.9694 51.4445 25.8591 51.1784 25.8591H39.1371C39.1371 24.3808 38.8702 22.9694 38.3845 21.6712H51.1784C52.509 21.6712 53.7852 22.2227 54.7261 23.2044C55.667 24.1862 56.1956 25.5177 56.1956 26.9061V27.4295C56.1956 28.0054 56.1956 31.2929 54.0803 34.4652ZM36.1268 9.1075C36.1268 7.9968 36.5496 6.93159 37.3024 6.14621C38.0551 5.36083 39.076 4.9196 40.1405 4.9196C41.205 4.9196 42.226 5.36083 42.9787 6.14621C43.7314 6.93159 44.1543 7.9968 44.1543 9.1075C44.1543 10.2182 43.7314 11.2834 42.9787 12.0688C42.226 12.8542 41.205 13.2954 40.1405 13.2954C39.076 13.2954 38.0551 12.8542 37.3024 12.0688C36.5496 11.2834 36.1268 10.2182 36.1268 9.1075ZM40.1405 0.731709C38.0115 0.731709 35.9697 1.61416 34.4642 3.18492C32.9588 4.75569 32.113 6.8861 32.113 9.1075C32.113 11.3289 32.9588 13.4593 34.4642 15.0301C35.9697 16.6008 38.0115 17.4833 40.1405 17.4833C42.2696 17.4833 44.3114 16.6008 45.8168 15.0301C47.3223 13.4593 48.168 11.3289 48.168 9.1075C48.168 6.8861 47.3223 4.75569 45.8168 3.18492C44.3114 1.61416 42.2696 0.731709 40.1405 0.731709ZM28.0992 21.6712C27.0347 21.6712 26.0138 22.1124 25.2611 22.8978C24.5084 23.6832 24.0855 24.7484 24.0855 25.8591C24.0855 26.9698 24.5084 28.035 25.2611 28.8204C26.0138 29.6058 27.0347 30.047 28.0992 30.047C29.1638 30.047 30.1847 29.6058 30.9374 28.8204C31.6901 28.035 32.113 26.9698 32.113 25.8591C32.113 24.7484 31.6901 23.6832 30.9374 22.8978C30.1847 22.1124 29.1638 21.6712 28.0992 21.6712ZM20.0717 25.8591C20.0717 23.6377 20.9175 21.5073 22.4229 19.9365C23.9284 18.3657 25.9702 17.4833 28.0992 17.4833C30.2283 17.4833 32.2701 18.3657 33.7756 19.9365C35.281 21.5073 36.1268 23.6377 36.1268 25.8591C36.1268 28.0805 35.281 30.2109 33.7756 31.7817C32.2701 33.3524 30.2283 34.2349 28.0992 34.2349C25.9702 34.2349 23.9284 33.3524 22.4229 31.7817C20.9175 30.2109 20.0717 28.0805 20.0717 25.8591ZM12.0442 43.6576C12.0442 42.2693 12.5728 40.9378 13.5137 39.956C14.4546 38.9743 15.7308 38.4228 17.0614 38.4228H39.1371C39.796 38.4228 40.4484 38.5582 41.0571 38.8212C41.6658 39.0843 42.2189 39.4699 42.6848 39.956C43.1507 40.4421 43.5202 41.0192 43.7724 41.6543C44.0245 42.2895 44.1543 42.9702 44.1543 43.6576V44.1811C44.1543 44.757 44.1543 48.0445 42.039 51.2168C39.8315 54.5273 35.6371 57.2683 28.0992 57.2683C20.5614 57.2683 16.367 54.5273 14.1595 51.2168C12.0442 48.0445 12.0442 44.7591 12.0442 44.1811V43.6576ZM17.0614 42.6107C16.7953 42.6107 16.5401 42.721 16.3519 42.9173C16.1637 43.1137 16.058 43.38 16.058 43.6576V44.1811C16.058 44.5266 16.06 46.7357 17.4548 48.8255C18.7592 50.7833 21.5889 53.0804 28.0992 53.0804C34.6096 53.0804 37.4393 50.7833 38.7437 48.8255C39.6397 47.4558 40.1259 45.8394 40.1405 44.1811V43.6576C40.1405 43.38 40.0348 43.1137 39.8466 42.9173C39.6584 42.721 39.4032 42.6107 39.1371 42.6107H17.0614Z" fill="#4F33EF"/>
</svg>
