<svg width="47" height="47" viewBox="0 0 47 47" fill="none" xmlns="http://www.w3.org/2000/svg">
<path d="M9.79167 11.75C10.311 11.75 10.8092 11.9563 11.1764 12.3236C11.5437 12.6908 11.75 13.189 11.75 13.7083V23.5H17.625V13.7083C17.625 13.189 17.8313 12.6908 18.1986 12.3236C18.5658 11.9563 19.064 11.75 19.5833 11.75C20.1027 11.75 20.6008 11.9563 20.9681 12.3236C21.3353 12.6908 21.5417 13.189 21.5417 13.7083V33.2917C21.5417 33.8111 21.3353 34.3092 20.9681 34.6764C20.6008 35.0437 20.1027 35.25 19.5833 35.25C19.064 35.25 18.5658 35.0437 18.1986 34.6764C17.8313 34.3092 17.625 33.8111 17.625 33.2917V27.4167H11.75V33.2917C11.75 33.8111 11.5437 34.3092 11.1764 34.6764C10.8092 35.0437 10.311 35.25 9.79167 35.25C9.27228 35.25 8.77418 35.0437 8.40692 34.6764C8.03966 34.3092 7.83333 33.8111 7.83333 33.2917V13.7083C7.83333 13.189 8.03966 12.6908 8.40692 12.3236C8.77418 11.9563 9.27228 11.75 9.79167 11.75ZM27.4167 11.75C26.8973 11.75 26.3992 11.9563 26.0319 12.3236C25.6647 12.6908 25.4583 13.189 25.4583 13.7083V33.2917C25.4583 33.8111 25.6647 34.3092 26.0319 34.6764C26.3992 35.0437 26.8973 35.25 27.4167 35.25H29.0499C31.733 35.25 34.3063 34.1841 36.2035 32.2869C38.1008 30.3896 39.1667 27.8164 39.1667 25.1332V21.8668C39.1667 19.1836 38.1008 16.6104 36.2035 14.7131C34.3063 12.8159 31.733 11.75 29.0499 11.75H27.4167ZM35.25 25.1332C35.25 28.4468 32.6493 31.1571 29.375 31.3216V15.6784C32.6493 15.8468 35.25 18.5572 35.25 21.8707V25.1332ZM0 9.79167C0 7.19476 1.03162 4.70421 2.86791 2.86791C4.70421 1.03162 7.19476 0 9.79167 0H37.2083C39.8052 0 42.2958 1.03162 44.1321 2.86791C45.9684 4.70421 47 7.19476 47 9.79167V37.2083C47 39.8052 45.9684 42.2958 44.1321 44.1321C42.2958 45.9684 39.8052 47 37.2083 47H9.79167C7.19476 47 4.70421 45.9684 2.86791 44.1321C1.03162 42.2958 0 39.8052 0 37.2083V9.79167ZM9.79167 3.91667C8.23352 3.91667 6.73919 4.53564 5.63741 5.63741C4.53564 6.73919 3.91667 8.23352 3.91667 9.79167V37.2083C3.91667 38.7665 4.53564 40.2608 5.63741 41.3626C6.73919 42.4644 8.23352 43.0833 9.79167 43.0833H37.2083C38.7665 43.0833 40.2608 42.4644 41.3626 41.3626C42.4644 40.2608 43.0833 38.7665 43.0833 37.2083V9.79167C43.0833 8.23352 42.4644 6.73919 41.3626 5.63741C40.2608 4.53564 38.7665 3.91667 37.2083 3.91667H9.79167Z" fill="#4F33EF"/>
</svg>
