<?xml version="1.0" encoding="utf-8"?>
<!-- Generator: Adobe Illustrator 23.0.1, SVG Export Plug-In . SVG Version: 6.00 Build 0)  -->
<!DOCTYPE svg PUBLIC "-//W3C//DTD SVG 1.1//EN" "http://www.w3.org/Graphics/SVG/1.1/DTD/svg11.dtd" [
	<!ENTITY ns_extend "http://ns.adobe.com/Extensibility/1.0/">
	<!ENTITY ns_ai "http://ns.adobe.com/AdobeIllustrator/10.0/">
	<!ENTITY ns_graphs "http://ns.adobe.com/Graphs/1.0/">
	<!ENTITY ns_vars "http://ns.adobe.com/Variables/1.0/">
	<!ENTITY ns_imrep "http://ns.adobe.com/ImageReplacement/1.0/">
	<!ENTITY ns_sfw "http://ns.adobe.com/SaveForWeb/1.0/">
	<!ENTITY ns_custom "http://ns.adobe.com/GenericCustomNamespace/1.0/">
	<!ENTITY ns_adobe_xpath "http://ns.adobe.com/XPath/1.0/">
]>
<svg version="1.1" id="Livello_1" xmlns:x="&ns_extend;" xmlns:i="&ns_ai;" xmlns:graph="&ns_graphs;"
	 xmlns="http://www.w3.org/2000/svg" xmlns:xlink="http://www.w3.org/1999/xlink" x="0px" y="0px" viewBox="0 0 2220.8 250"
	 enable-background="new 0 0 2220.8 250" xml:space="preserve">
<metadata>
	<sfw  xmlns="&ns_sfw;">
		<slices></slices>
		<sliceSourceBounds  bottomLeftOrigin="true" height="250" width="2220.8" x="-221.9" y="-24.5"></sliceSourceBounds>
	</sfw>
</metadata>
<g>
	<g>
		<path fill="#FFFFFF" d="M2206.8,247.4c6.4,0,11.5-5.3,11.5-11.7V14.3c0-6.5-5.1-11.7-11.5-11.7l-969.2,0v244.7L2206.8,247.4"/>
		<path fill="#9D9D9C" d="M2204.1,0h-966.5v5.2h966.5c6.3,0,11.4,5.1,11.4,11.5v216.7c0,6.3-5.1,11.4-11.4,11.4h-966.5v5.2h966.5
			c9.2,0,16.7-7.5,16.7-16.7V16.7C2220.8,7.5,2213.3,0,2204.1,0"/>
	</g>
	<g>
		<path fill="#FFFFFF" d="M13.9,2.6C7.6,2.6,2.4,7.9,2.4,14.4v221.3c0,6.5,5.1,11.7,11.5,11.7l406.5,0V2.7L13.9,2.6"/>
		<path fill="#9D9D9C" d="M16.7,250h403.8v-5.2H16.7c-6.3,0-11.4-5.1-11.4-11.4V16.7c0-6.3,5.1-11.5,11.4-11.5h403.8V0H16.7
			C7.5,0,0,7.5,0,16.7v216.7C0,242.5,7.5,250,16.7,250"/>
	</g>
	
		<linearGradient id="SVGID_1_" gradientUnits="userSpaceOnUse" x1="817.0614" y1="513.7581" x2="846.795" y2="513.7581" gradientTransform="matrix(0 8.4069 8.4069 0 -3489.5662 -6868.9565)">
		<stop  offset="0" style="stop-color:#AE0019"/>
		<stop  offset="0.1" style="stop-color:#AE0019"/>
		<stop  offset="0.9" style="stop-color:#8D0000"/>
		<stop  offset="1" style="stop-color:#8D0000"/>
	</linearGradient>
	<rect x="416" y="0" fill="url(#SVGID_1_)" width="827.1" height="250"/>
	<g>
		<path fill="#FFFFFF" d="M1182.9,109.2v73.9c-2,0.5-5.4,1-8.7,1c-7,0-10-2.4-10-7.3v-9.7c-10.9,11.7-24.1,18.5-41.6,18.5
			c-26,0-40.6-16.8-40.6-35.3c0-28.2,30.4-40.6,81.9-37.2v-3.2c0-18-5.8-28.7-28.7-28.7c-11.9,0-22.1,2.7-28.9,4.9
			c-3.6,1-6.3,1.9-8.3,1.9c-5.4,0-8.5-4.8-7.3-15.1c11.7-4.4,28.9-8.3,45.2-8.3C1170.3,64.7,1182.9,81.7,1182.9,109.2 M1163.9,149.8
			v-22.4c-33.5-1.5-62.5,1.7-62.5,22.6c0,10.2,8.7,19.7,24.3,19.7C1141.6,169.7,1155,161.7,1163.9,149.8"/>
		<path fill="#FFFFFF" d="M465.7,125c0-34.5,25.5-60.3,59.1-60.3c16.1,0,30.4,4.4,40.6,9.5c1,10.4-2.9,14.8-7.8,14.8
			c-6.8,0-14.4-7.6-32.1-7.6c-22.4,0-40.6,16.8-40.6,43.5c0,27,18.2,44,40.6,44c17.8,0,25.3-7.6,32.1-7.6c4.8,0,8.7,4.4,7.8,14.8
			c-10.2,4.9-24.5,9.2-40.6,9.2C491.3,185.5,465.7,159.5,465.7,125"/>
		<path fill="#FFFFFF" d="M874.9,132.8h-90.5c2.9,22.6,18.7,35.5,42,35.5c10,0,17.8-2.2,25.1-4.6c4.8-1.7,7.5-2.7,9.5-2.7
			c4.9,0,8.5,4.6,7.3,15.1c-10.2,4.6-26,9.5-42.6,9.5c-36.2,0-61-24.6-61-60.8c0-34.8,26-60,57.9-60c35.7,0,53.2,28.5,53.2,56.1
			C875.9,124.5,875.6,128.4,874.9,132.8 M784.4,117h72.7c-0.7-19.9-13.6-35.7-34.5-35.7C804.1,81.2,787.6,93.6,784.4,117"/>
		<path fill="#FFFFFF" d="M589.6,35.3c0-7,5.6-12.4,12.4-12.4c6.8,0,12.2,5.4,12.2,12.4c0,6.3-5.4,12.2-12.2,12.2
			C595.2,47.4,589.6,41.6,589.6,35.3 M592.3,183.1V73.4c0-4.4,2.4-7.3,10.2-7.3c3.2,0,6.8,0.7,8.8,1.2v109.4c0,4.6-2.7,7.3-10.2,7.3
			C597.9,184.1,594.2,183.6,592.3,183.1"/>
		<path fill="#FFFFFF" d="M1061.1,106.8v70c0,4.6-2.7,7.3-10.2,7.3c-3.2,0-6.8-0.5-8.8-1V109c0-17.3-8.2-27.5-23.6-27.5
			c-13.1,0-24.3,9.5-28.7,18.9v76.4c0,4.6-2.4,7.3-10,7.3c-3.4,0-7-0.5-9-1V109c0-17.3-8-27.5-23.6-27.5c-13.1,0-24.3,9.5-28.7,18.9
			v76.4c0,4.6-2.4,7.3-10,7.3c-3.4,0-7-0.5-8.7-1V67.4c1.9-0.5,5.6-1.2,8.7-1.2c7.3,0,9.7,2.9,9.7,7.8v8.3
			c7.6-10,19.2-17.5,33.6-17.5c15.3,0,27.5,8,33.5,21.1c8-11.7,20.2-21.1,37.4-21.1C1048,64.7,1061.1,83.6,1061.1,106.8"/>
		<path fill="#FFFFFF" d="M744,114.3v62.5c0,4.6-2.4,7.3-10,7.3c-3.2,0-6.8-0.5-8.8-1v-66.4c0-23.8-11.9-35.3-29.2-35.3
			c-13.9,0-28.7,9.8-34.8,20.9v74.4c0,4.6-2.4,7.3-10,7.3c-3.4,0-7-0.5-8.8-1V67.4c1.7-0.5,5.4-1.2,8.8-1.2c7.5,0,10,2.9,10,7.3v10
			c8.5-10.2,21.4-18.7,38.9-18.7C724.1,64.7,744,80,744,114.3"/>
	</g>
	<linearGradient id="SVGID_2_" gradientUnits="userSpaceOnUse" x1="218.6231" y1="225.6221" x2="218.6231" y2="24.1468">
		<stop  offset="0" style="stop-color:#8D0000"/>
		<stop  offset="0.1" style="stop-color:#8D0000"/>
		<stop  offset="0.9" style="stop-color:#AE0019"/>
		<stop  offset="1" style="stop-color:#AE0019"/>
	</linearGradient>
	<path fill="url(#SVGID_2_)" d="M155.4,146.2c0,0.2,0,0.4,0,0.6c0,0.1,0,0.1,0,0.2c0,0.2,0,0.5,0,0.7c0,19.5-12.8,33.8-38.7,36.6
		c-18.8,2-46-0.4-58.9-1.8l-0.9-6.8c0-17.1,9.2-21,17.9-21c9,0,23.2,1.6,33.7,1.6c11.6,0,15.1-4,15.1-7.7c0-4.9-4.7-6.9-13.7-8.7
		l-3.1-0.6l-21.5-4.1c-20.5-4-31.4-18.1-31.4-33.1c0-18.3,12.9-33.5,38.4-36.4c5.4-0.6,11.1-0.8,16.9-0.8c14.7,0,29.3,1.5,38.5,2.7
		l0.7,6.6c0,17-9,20.7-17.6,20.7c-6.7,0-17-1.2-28.8-1.2c-12,0-17,3.3-17,7.4c0,4.3,4.8,6,12.3,7.3l23.5,4.4
		c19,3.5,29.5,12.8,33.1,24.8c0.7,2.5,1.2,5.1,1.4,7.9c0,0,0,0.1,0,0.1c0,0.2,0,0.4,0,0.6C155.4,146,155.4,146.1,155.4,146.2z
		 M165.8,45.7V137v47.7c2.3,0.3,4.6,0.5,7.3,0.5c20.5,0,24.6-6,24.6-16.5v-33V24.9l-7.7-0.8C169.4,24.1,165.8,35.1,165.8,45.7z
		 M370,65.5c-0.3,0-0.6,0-0.9,0c-8.1,0-18.5,2.1-25.3,18.3l-19.8,46.9l-0.8,1.8l-1.1-1.8l0,0l-39.4-64.1c-2.6-0.8-9-2-13.6-2
		c-14.2,0-22.2,5.3-30.5,14.3l-39.3,43l8.5,13.4l23.1,36.4c5.8,9.1,13.5,13.7,26,13.7c8.2,0,15-1.9,18.1-3.4l-31.9-48.1l-6.2-9.3
		l27-28.6l23,36.1l21.2,33.4l-27,56.9c2.7,1.4,8.2,3,15.1,3.2c4.3,0.1,7.9-0.4,10.9-1.7c5.4-2.2,9.2-6.5,12.2-13.3l36.5-81.3
		l27.2-60.8C380.6,67.2,374.7,65.6,370,65.5z"/>
	<path opacity="0.2" fill="#FFFFFF" d="M16.7,0C7.4,0,0,7.5,0,16.7v150.9c0-5.7,1.9-11,5.2-15.3v0c4.4-5.7,11.2-9.4,18.8-9.7
		L1243.1,94V0H16.7z"/>
	<linearGradient id="SVGID_3_" gradientUnits="userSpaceOnUse" x1="1738.8608" y1="207.6817" x2="1738.8608" y2="34.0183">
		<stop  offset="0" style="stop-color:#8D0000"/>
		<stop  offset="0.1" style="stop-color:#8D0000"/>
		<stop  offset="0.9" style="stop-color:#AE0019"/>
		<stop  offset="1" style="stop-color:#AE0019"/>
	</linearGradient>
	<path fill="url(#SVGID_3_)" d="M1923,42.3c1,13.8,1.3,27.6,1.7,41.3c0.4,13.8,0.4,27.6,0.4,41.4c0,13.8-0.1,27.5-0.5,41.3
		c-0.3,13.8-0.8,27.6-1.7,41.4h-0.2c-0.9-13.8-1.3-27.6-1.7-41.4c-0.4-13.8-0.5-27.5-0.6-41.3c0-13.8,0.1-27.6,0.4-41.4
		c0.4-13.7,0.8-27.5,1.8-41.3H1923z M1315.6,152c0,9.2,7.9,17.8,21.9,17.8c14.2,0,26.8-7.5,34.7-18.3v-20.1
		C1341.5,130.1,1315.6,133,1315.6,152 M1349.2,72.8c30.2,0.7,41.5,16.6,41.5,41.7v68.3c-1.8,0.5-5.2,0.9-8.6,0.9
		c-6.8,0-9.7-2.5-9.7-7v-9c-9.9,11.1-22.1,17.6-38.4,17.6c-24.2,0-37.7-15.8-37.7-32.9c0-26.1,28-37.6,75.8-34.5V115
		c0-16.5-5.4-25.9-26.2-25.9c-10.9,0-20.1,2.5-26.6,4.5c-3.4,0.9-5.9,1.8-7.9,1.8c-5.2,0-8.1-5-7-14.9c10.5-3.9,25.5-7.3,40.1-7.6
		H1349.2z M1409,129c0,32,23.7,56.4,55.1,56.4c14.7,0,28.2-4.1,37.7-8.8c0.9-10.1-2.7-14.6-7.5-14.6c-6.5,0-13.3,7-29.5,7
		c-20.3,0-37-15.4-37-39.9c0-24.6,16.7-39.7,37-39.7c16.2,0,23,7,29.5,7c4.8,0,8.4-4.5,7.5-14.7c-9.5-4.5-23-8.6-37.7-8.6
		C1432.7,73,1409,97,1409,129 M1611.6,81.4c0-4.3,2.5-7,9.9-7c3.2,0,6.8,0.4,8.6,0.9v101.5c0,4.5-2.5,7-9.9,7
		c-3.2,0-6.8-0.4-8.6-0.9V81.4 M1609.1,45.7c0-6.8,5.4-11.7,12-11.7c6.5,0,11.7,4.9,11.7,11.7c0,6.1-5.2,11.7-11.7,11.7
		C1614.6,57.5,1609.1,51.8,1609.1,45.7 M1800.6,90.4v-9c0-4.3-2.3-7-9.7-7c-3.4,0-6.8,0.4-8.6,0.9v107.6c1.8,0.5,5.4,0.9,8.6,0.9
		c7.4,0,9.7-2.7,9.7-7v-68.6c5.7-10.2,19-18.7,31.6-18.7c16,0,26.6,10.4,26.6,32.1v61.3c1.8,0.5,5.4,0.9,8.6,0.9
		c7.5,0,9.9-2.7,9.9-7v-57.7c0-32-18.5-46-40.6-46C1820.5,73,1808.5,80.9,1800.6,90.4 M1671.7,129c0,24.6,16.7,39.9,36.8,39.9
		c20.3,0,37-15.4,37-39.9c0-24.6-16.7-39.7-37-39.7C1688.4,89.3,1671.7,104.4,1671.7,129 M1652.9,129c0-32,23.7-56,55.5-56
		c32.1,0,55.7,23.9,55.7,56c0,32-23.7,56.4-55.7,56.4C1676.6,185.4,1652.9,161,1652.9,129 M1522.7,56.3v95.5
		c0,21,12.9,33.6,34.3,33.6c10.8,0,21.6-2.9,31.1-7.4c0.9-9-1.6-13.5-6.8-13.5c-5.2,0-11.5,4.3-22.3,4.3c-12,0-18.1-5.9-18.1-18.5
		V91.5h36.3c4.3,0,6.8-2.3,6.8-8.8c0-2.7-0.4-5.9-0.7-7.4h-42.2V49.6c-1.8-0.5-5.2-1.1-8.6-1.1C1525.7,48.4,1522.7,51.6,1522.7,56.3
		 M2045.3,67.9c-1.5,1.3-2.3,3.1-2.3,5.2v44.6h-58.3V67.5l-1.5-0.6c-0.8-0.3-1.8-0.5-3.1-0.7c-1.1-0.1-2.3-0.2-3.4-0.2
		c-3,0-5.2,0.6-6.6,1.9c-1.5,1.3-2.3,3.1-2.3,5.2v111.6l1.5,0.6c0.8,0.3,1.8,0.5,3.1,0.7c1.1,0.1,2.3,0.2,3.4,0.2
		c3,0,5.1-0.6,6.6-1.9c1.5-1.3,2.3-3.2,2.3-5.2v-45.8h58.3v51.5l1.5,0.6c0.8,0.3,1.8,0.5,3.1,0.7c1.1,0.1,2.3,0.2,3.4,0.2
		c3,0,5.1-0.6,6.6-1.9c1.5-1.3,2.3-3.2,2.3-5.2V67.5l-1.6-0.6c-0.8-0.3-1.8-0.5-3.1-0.7c-1.1-0.1-2.3-0.2-3.4-0.2
		C2048.9,66,2046.7,66.6,2045.3,67.9 M2102,169.7h17.6c6,0,11.8-1,17.2-2.8c5.3-1.9,10-4.7,14.1-8.4c4-3.7,7.2-8.4,9.6-14
		c2.4-5.6,3.6-12.2,3.6-19.8c0-6.7-1.2-12.8-3.6-18.1s-5.6-9.8-9.6-13.4c-4-3.6-8.7-6.4-14.1-8.3c-5.4-1.9-11.2-2.8-17.3-2.8H2102
		V169.7z M2119.1,66.4c9.4,0,18,1.4,25.5,4.1c7.6,2.7,14.3,6.7,19.7,11.7c5.4,5.1,9.7,11.3,12.6,18.5c2.9,7.2,4.4,15.3,4.4,24.1
		c0,8.3-1.5,16.3-4.4,23.5c-2.9,7.3-7.1,13.8-12.5,19.2s-12,9.8-19.7,13c-7.6,3.2-16.3,4.7-25.7,4.7h-26.1c-3.2,0-5.3-0.8-6.5-2.5
		c-0.9-1.3-1.4-3-1.4-4.9V73.7c0-1.9,0.5-3.5,1.4-4.9c1.1-1.7,3.3-2.5,6.5-2.5H2119.1z"/>
</g>
</svg>
