<svg width="37" height="33" viewBox="0 0 37 33" fill="none" xmlns="http://www.w3.org/2000/svg">
<path d="M2.50825 0.5C2.03086 0.5 1.57303 0.687301 1.23546 1.0207C0.897894 1.3541 0.708252 1.80628 0.708252 2.27778V30.7222C0.708252 31.1937 0.897894 31.6459 1.23546 31.9793C1.57303 32.3127 2.03086 32.5 2.50825 32.5H34.9083C35.3856 32.5 35.8435 32.3127 36.181 31.9793C36.5186 31.6459 36.7083 31.1937 36.7083 30.7222V2.27778C36.7083 1.80628 36.5186 1.3541 36.181 1.0207C35.8435 0.687301 35.3856 0.5 34.9083 0.5H2.50825ZM7.90825 7.61111H18.7083V18.2778H7.90825V7.61111ZM11.5083 11.1667V14.7222H15.1083V11.1667H11.5083ZM29.5083 11.1667H22.3083V7.61111H29.5083V11.1667ZM22.3083 18.2778V14.7222H29.5083V18.2778H22.3083ZM7.90825 25.3889V21.8333H29.5083V25.3889H7.90825Z" fill="white"/>
</svg>
